<svg width="200" height="146.91920646352472" viewBox="0 0 200 146.91920646352472" class="css-1j8o68f"><defs id="SvgjsDefs20513"><linearGradient id="SvgjsLinearGradient20518"><stop id="SvgjsStop20519" stop-color="#616161" offset="0"></stop><stop id="SvgjsStop20520" stop-color="#e6e7e8" offset="0.5"></stop><stop id="SvgjsStop20521" stop-color="#616161" offset="1"></stop></linearGradient><linearGradient id="SvgjsLinearGradient20522"><stop id="SvgjsStop20523" stop-color="#616161" offset="0"></stop><stop id="SvgjsStop20524" stop-color="#e6e7e8" offset="0.5"></stop><stop id="SvgjsStop20525" stop-color="#616161" offset="1"></stop></linearGradient></defs><g id="SvgjsG20514" featurekey="symbolFeature-0" transform="matrix(1.8586276884822577,0,0,1.8586276884822577,40.804670290676626,-16.987857710837012)" fill="url(#SvgjsLinearGradient20518)"><g xmlns="http://www.w3.org/2000/svg"><path fill="url(#SvgjsLinearGradient20518)" d="M44.868,25.026c-2.097,0-3.795,1.7-3.795,3.796   c0,2.096,1.698,3.796,3.795,3.796c2.095,0,3.796-1.7,3.796-3.796C48.664,26.726,46.963,25.026,44.868,25.026z M19.813,25.026   c-2.098,0-3.796,1.7-3.796,3.796c0,2.096,1.699,3.796,3.796,3.796c2.096,0,3.795-1.7,3.795-3.796   C23.608,26.726,21.909,25.026,19.813,25.026z M9.242,20.24c-0.741-0.744-1.11-1.718-1.11-2.686c0-0.973,0.369-1.946,1.11-2.687   c0.745-0.74,1.714-1.109,2.686-1.109c0.973,0,1.946,0.369,2.686,1.109l-0.887,0.655c5.137-3.995,11.597-6.382,18.613-6.382   c7.018,0,13.469,2.386,18.613,6.382l-0.884-0.652c0.741-0.741,1.711-1.11,2.686-1.11c0.97,0,1.944,0.369,2.683,1.11   c0.738,0.745,1.107,1.718,1.107,2.686c0,0.974-0.366,1.946-1.107,2.687l0.886,0.651c12.835,12.834-9.011,18.613-9.011,18.613   H17.368c-0.63,0-22.741-4.884-9.011-18.613L9.242,20.24z"></path></g><path xmlns="http://www.w3.org/2000/svg" fill="url(#SvgjsLinearGradient20518)" d="M52.358,53.063c-2.55,0-4.617-2.067-4.617-4.618l0,0c0-2.55,2.067-4.617,4.617-4.617l0,0  c2.55,0,4.617,2.067,4.617,4.617l0,0C56.976,50.996,54.908,53.063,52.358,53.063L52.358,53.063z"></path><path xmlns="http://www.w3.org/2000/svg" fill="url(#SvgjsLinearGradient20518)" d="M14.422,53.483c-2.551,0-4.618-2.067-4.618-4.618l0,0c0-2.55,2.067-4.617,4.618-4.617l0,0  c2.551,0,4.618,2.067,4.618,4.617l0,0C19.04,51.416,16.973,53.483,14.422,53.483L14.422,53.483z"></path><path xmlns="http://www.w3.org/2000/svg" fill="url(#SvgjsLinearGradient20518)" d="M18.526,40.461h27.726C46.252,40.461,32.81,45.081,18.526,40.461z"></path></g><g id="SvgjsG20515" featurekey="nameFeature-0" transform="matrix(1.3694878745176644,0,0,1.3694878745176644,-1.6433851882121149,91.591892937293)" fill="url(#SvgjsLinearGradient20522)"><path d="M1.2 30.240000000000002 l4.04 0 c0.08 5.16 0.48 6.16 1.92 6.16 c1.96 0 1.96 -1.64 1.96 -6 c0 -6.4 -7.92 -4.68 -7.92 -13.2 c0 -5 0 -9.6 6 -9.6 c4.44 0 5.64 2.52 5.92 8.56 l-4 0 c-0.16 -4.36 -0.64 -5.36 -1.92 -5.36 c-1.96 0 -1.96 2.16 -1.96 6.4 c0 6.2 7.96 4 7.96 13.2 c0 5.6 0 10 -6.04 10 c-4.64 0 -5.72 -2.76 -5.96 -10.16 z M16.4 40 l0 -32 l3.6 0 l4.2 20 l0.4 0 l4.2 -20 l3.6 0 l0 32 l-4 0 l0 -16 l-2.84 16 l-2.4 0 l-2.76 -16 l0 16 l-4 0 z M36.4 40 l0 -16.8 c0 -11.16 0 -15.56 6 -15.56 s6 4.4 6 15.56 l0 16.8 l-4 0 l0 -9.2 l-4 0 l0 9.2 l-4 0 z M40.4 27.6 l4 0 l0 -4.4 c0 -10.4 0 -12.36 -2 -12.36 s-2 1.96 -2 12.36 l0 4.4 z M52.4 40 l0 -32 l6.48 0 c4.12 0 5.52 2.52 5.52 7.36 c0 4.36 -0.52 6.84 -1.76 8.04 l0 0.24 c1.04 0.36 1.36 2.24 1.76 6.92 l0.8 9.44 l-4 0 l-0.52 -9.44 c-0.28 -4.76 -1 -5.76 -2.2 -5.76 l-2.08 0 l0 15.2 l-4 0 z M56.4 21.6 l2.48 0 c1.4 0 1.8 -1.4 1.8 -6.24 c0 -3.16 -0.6 -4.16 -1.8 -4.16 l-2.48 0 l0 10.4 z M66.80000000000001 11.600000000000001 l0 -3.6 l12 0 l0 3.6 l-4 0 l0 28.4 l-4 0 l0 -28.4 l-4 0 z M80.8 23.16 c0 -11.16 0 -15.56 5.6 -15.56 c4.12 0 5.24 2.52 5.52 8.56 l-3.72 0 c-0.16 -4.36 -0.6 -5.36 -1.8 -5.36 c-1.84 0 -1.84 1.96 -1.84 12.36 c0 11.56 0 13.24 1.84 13.24 c1.32 0 1.72 -1 1.8 -6.16 l3.76 0 c-0.24 7.4 -1.24 10.16 -5.56 10.16 c-5.6 0 -5.6 -4.44 -5.6 -17.24 z M94.36 23.16 c0 -11.16 0.24 -15.56 6.24 -15.56 s6.24 4.4 6.24 15.56 c0 12.8 -0.24 17.24 -6.24 17.24 s-6.24 -4.44 -6.24 -17.24 z M98.36 23.16 c0 11.56 0 13.24 2.24 13.24 s2.24 -1.68 2.24 -13.24 c0 -10.4 0 -12.36 -2.24 -12.36 s-2.24 1.96 -2.24 12.36 z M110.44 40 l0 -32 l6 0 c6 0 6 4.4 6 15.16 c0 12.4 0 16.84 -6 16.84 l-6 0 z M114.44 36 l2 0 c2.24 0 2.24 -1.68 2.24 -12.84 c0 -10 0 -11.96 -2.24 -11.96 l-2 0 l0 24.8 z M126.03999999999999 40 l0 -32 l9.2 0 l0 3.2 l-5.2 0 l0 10.4 l4.4 0 l0 3.2 l-4.4 0 l0 11.2 l5.2 0 l0 4 l-9.2 0 z M138.04 40 l0 -32 l9.2 0 l0 3.2 l-5.2 0 l0 10.4 l4.4 0 l0 3.2 l-4.4 0 l0 11.2 l5.2 0 l0 4 l-9.2 0 z"></path></g></svg>